<svg
 xmlns="http://www.w3.org/2000/svg"
 xmlns:xlink="http://www.w3.org/1999/xlink"
 width="18px" height="21px">
<path fill-rule="evenodd"  fill="rgb(255, 255, 255)"
 d="M8.206,0.820 L0.826,8.043 C0.615,8.249 0.500,8.523 0.500,8.817 C0.500,9.110 0.616,9.385 0.826,9.591 L1.496,10.246 C1.707,10.452 1.988,10.566 2.287,10.566 C2.586,10.566 2.877,10.452 3.087,10.246 L7.402,6.033 L7.402,19.419 C7.402,20.023 7.885,20.500 8.501,20.500 L9.449,20.500 C10.066,20.500 10.597,20.023 10.597,19.419 L10.597,5.985 L14.936,10.246 C15.147,10.452 15.420,10.566 15.719,10.566 C16.019,10.566 16.296,10.452 16.506,10.246 L17.174,9.591 C17.385,9.384 17.500,9.110 17.500,8.816 C17.500,8.523 17.384,8.249 17.173,8.043 L9.793,0.820 C9.582,0.613 9.300,0.500 9.000,0.501 C8.699,0.500 8.417,0.613 8.206,0.820 Z"/>
</svg>