<svg
 xmlns="http://www.w3.org/2000/svg"
 xmlns:xlink="http://www.w3.org/1999/xlink"
 width="17px" height="18px">
<path fill-rule="evenodd"  fill="rgb(255, 255, 255)"
 d="M16.609,16.009 L12.451,11.658 C13.520,10.380 14.106,8.770 14.106,7.096 C14.106,3.183 10.942,-0.001 7.052,-0.001 C3.163,-0.001 -0.002,3.183 -0.002,7.096 C-0.002,11.009 3.163,14.192 7.052,14.192 C8.512,14.192 9.904,13.749 11.094,12.908 L15.283,17.292 C15.458,17.475 15.694,17.576 15.946,17.576 C16.185,17.576 16.412,17.484 16.584,17.317 C16.950,16.964 16.961,16.377 16.609,16.009 ZM7.052,1.851 C9.927,1.851 12.266,4.204 12.266,7.096 C12.266,9.988 9.927,12.341 7.052,12.341 C4.177,12.341 1.838,9.988 1.838,7.096 C1.838,4.204 4.177,1.851 7.052,1.851 Z"/>
</svg>